<svg version="1.1" xmlns="http://www.w3.org/2000/svg" viewBox="0 0 806 291.0000305175781" width="1612" height="582.0000610351562">
  <!-- svg-source:excalidraw -->
  
  <defs>
    <style class="style-fonts">
      @font-face {
        font-family: "Virgil";
        src: url("https://excalidraw.com/Virgil.woff2");
      }
      @font-face {
        font-family: "Cascadia";
        src: url("https://excalidraw.com/Cascadia.woff2");
      }
    </style>
    
  </defs>
  <g stroke-linecap="round" transform="translate(10 139.00003051757812) rotate(0 393 71)"><path d="M32 0 M32 0 C305.11 1.09, 579.05 0.27, 754 0 M32 0 C298.1 -3.09, 563.61 -2.37, 754 0 M754 0 C775.5 0.51, 786.78 9.2, 786 32 M754 0 C773.04 1.75, 785.13 10.94, 786 32 M786 32 C785.11 61.39, 783.66 90.96, 786 110 M786 32 C786.21 58.53, 787.33 84.28, 786 110 M786 110 C787.15 133.19, 773.83 140.53, 754 142 M786 110 C784.21 133.35, 776 142.5, 754 142 M754 142 C558.8 141.36, 362.38 141.75, 32 142 M754 142 C474.6 142.63, 194.34 142.69, 32 142 M32 142 C9.01 141.51, 0.04 132.26, 0 110 M32 142 C12.25 143.73, -0.09 129.71, 0 110 M0 110 C-1.41 80.25, 0.31 53.49, 0 32 M0 110 C0.53 84.02, -0.1 59.1, 0 32 M0 32 C1.05 10.26, 11.39 1.16, 32 0 M0 32 C-0.68 8.76, 8.8 -1.02, 32 0" stroke="#1e1e1e" stroke-width="1" fill="none"></path></g><g transform="translate(367.84375 144.00003051757812) rotate(0 35.15625 12)"><text x="35.15625" y="0" font-family="Cascadia, Segoe UI Emoji" font-size="20px" fill="#1e1e1e" text-anchor="middle" style="white-space: pre;" direction="ltr" dominant-baseline="text-before-edge">binary</text></g><g stroke-linecap="round" transform="translate(407.3334045410156 175) rotate(0 188.33331298828125 47.333343505859375)"><path d="M23.67 0 M23.67 0 C107.64 0.56, 189.53 -0.98, 353 0 M23.67 0 C118.77 -1.96, 213.92 -2.38, 353 0 M353 0 C369.25 1.15, 377.9 9.08, 376.67 23.67 M353 0 C371 0.97, 377.15 9.78, 376.67 23.67 M376.67 23.67 C378.03 40.6, 376.73 61.95, 376.67 71 M376.67 23.67 C376.3 38.35, 375.63 52.67, 376.67 71 M376.67 71 C378.6 86.78, 367.26 96.65, 353 94.67 M376.67 71 C374.86 88.39, 369.17 96.36, 353 94.67 M353 94.67 C266.65 92.29, 182.75 91.84, 23.67 94.67 M353 94.67 C226.17 97.03, 98.85 97.17, 23.67 94.67 M23.67 94.67 C9.17 93.96, 1.05 87.48, 0 71 M23.67 94.67 C8.17 93.45, -0.1 88.09, 0 71 M0 71 C1.66 58.82, -1.34 48.39, 0 23.67 M0 71 C-0.66 53.2, -0.01 34.52, 0 23.67 M0 23.67 C0.41 8.14, 9.24 -0.56, 23.67 0 M0 23.67 C1.83 9.22, 5.99 -1.5, 23.67 0" stroke="#1e1e1e" stroke-width="1" fill="none"></path></g><g transform="translate(566.3698425292969 210.33334350585938) rotate(0 29.296875 12)"><text x="29.296875" y="0" font-family="Cascadia, Segoe UI Emoji" font-size="20px" fill="#1e1e1e" text-anchor="middle" style="white-space: pre;" direction="ltr" dominant-baseline="text-before-edge">.data</text></g><g stroke-linecap="round" transform="translate(33.33331298828125 182.3333740234375) rotate(0 23.666671752929688 40.333343505859375)"><path d="M1.92 4.32 C1.92 4.32, 1.92 4.32, 1.92 4.32 M1.92 4.32 C1.92 4.32, 1.92 4.32, 1.92 4.32 M1.66 10.72 C3.3 7.84, 6.09 5.81, 7.57 3.93 M1.66 10.72 C4.27 8.46, 5.81 5.28, 7.57 3.93 M2.06 16.36 C5.68 10.33, 9.51 5.64, 14.52 2.02 M2.06 16.36 C5.61 10.66, 11.18 6.44, 14.52 2.02 M1.8 22.76 C5.25 18.64, 9.71 13.01, 19.51 2.38 M1.8 22.76 C8.16 14.14, 16.17 7.72, 19.51 2.38 M2.19 28.4 C8.54 22.36, 11.52 14.33, 25.15 1.99 M2.19 28.4 C8.1 20.4, 15.48 12.65, 25.15 1.99 M1.93 34.8 C11.32 24.76, 21.44 11.67, 30.14 2.35 M1.93 34.8 C10.1 25.69, 16.49 18.23, 30.14 2.35 M2.32 40.45 C14.95 24.55, 30.19 9.43, 35.13 2.71 M2.32 40.45 C10.25 31.28, 19.3 21.78, 35.13 2.71 M2.06 46.84 C12.95 32.63, 23.33 21.12, 40.77 2.32 M2.06 46.84 C12.05 37.05, 21.9 26.7, 40.77 2.32 M2.46 52.49 C17.25 33.14, 34.58 13.13, 45.1 3.43 M2.46 52.49 C15.18 37.69, 29.24 21.86, 45.1 3.43 M2.2 58.88 C18.56 38.32, 35.24 21.51, 47.46 6.81 M2.2 58.88 C17.11 41.12, 32.88 23.71, 47.46 6.81 M2.59 64.53 C16.03 50.81, 28.19 38.85, 47.2 13.21 M2.59 64.53 C17.3 48.41, 30.29 33.6, 47.2 13.21 M2.33 70.92 C13.12 58.04, 24.5 45.97, 46.94 19.6 M2.33 70.92 C18.35 52.47, 34.08 33.17, 46.94 19.6 M3.38 75.81 C20.29 56.79, 33.56 38.59, 47.34 25.25 M3.38 75.81 C16.72 59.57, 31.81 42.88, 47.34 25.25 M5.09 79.95 C18.76 64.08, 32.24 50.19, 47.07 31.65 M5.09 79.95 C17.83 64.52, 31.68 49.66, 47.07 31.65 M9.42 81.06 C24.03 64.82, 36.29 49.92, 47.47 37.29 M9.42 81.06 C24.45 64.52, 39.5 47.71, 47.47 37.29 M15.06 80.67 C23.62 74.16, 28.72 65.07, 47.21 43.69 M15.06 80.67 C21.21 71.84, 27.65 64.99, 47.21 43.69 M20.05 81.03 C29.37 69.57, 40.89 57.06, 47.6 49.33 M20.05 81.03 C29.06 70.93, 39.71 58.37, 47.6 49.33 M25.69 80.63 C34.09 72.94, 40.57 65.82, 47.34 55.73 M25.69 80.63 C30.69 75.34, 35.77 70.66, 47.34 55.73 M31.33 80.24 C36.24 72.21, 44.29 65.57, 47.73 61.37 M31.33 80.24 C34.89 75.04, 39.58 71.04, 47.73 61.37 M36.32 80.6 C39.45 77.77, 44.46 72.79, 47.47 67.77 M36.32 80.6 C39.35 77.16, 43.94 72.05, 47.47 67.77 M41.31 80.96 C42.41 79.57, 45.67 76.8, 48.52 72.66 M41.31 80.96 C43.14 78.6, 45.85 75.14, 48.52 72.66" stroke="#ffc9c9" stroke-width="0.5" fill="none"></path><path d="M11.83 0 M11.83 0 C21.67 0.87, 28.76 0.87, 35.5 0 M11.83 0 C20 0.42, 28.18 0.82, 35.5 0 M35.5 0 C44.16 1.41, 47.68 5.13, 47.33 11.83 M35.5 0 C41.53 -0.95, 46.5 5.98, 47.33 11.83 M47.33 11.83 C45.75 35.05, 49.26 57.18, 47.33 68.83 M47.33 11.83 C46.66 34.13, 46.71 55.55, 47.33 68.83 M47.33 68.83 C48.55 77.72, 42.84 78.71, 35.5 80.67 M47.33 68.83 C45.17 78.74, 41.17 81.19, 35.5 80.67 M35.5 80.67 C30.43 79.55, 21.3 81.93, 11.83 80.67 M35.5 80.67 C30.74 80.86, 24.07 81.46, 11.83 80.67 M11.83 80.67 C3.78 79.62, -2 78.02, 0 68.83 M11.83 80.67 C4.4 79.61, -2.22 77.61, 0 68.83 M0 68.83 C0.94 55.72, 0.89 40.78, 0 11.83 M0 68.83 C0.3 52.9, 0.66 35.22, 0 11.83 M0 11.83 C-0.51 3.63, 3.08 -1.52, 11.83 0 M0 11.83 C-0.15 2.25, 4.75 -1.49, 11.83 0" stroke="#1e1e1e" stroke-width="1" fill="none"></path></g><g stroke-linecap="round" transform="translate(419.3333435058594 185) rotate(0 22.666656494140625 37.66668701171875)"><path d="M4.62 1.37 C4.62 1.37, 4.62 1.37, 4.62 1.37 M4.62 1.37 C4.62 1.37, 4.62 1.37, 4.62 1.37 M2.39 10.03 C4.6 8.29, 4.59 5.58, 10.92 0.22 M2.39 10.03 C4.19 7.09, 6.62 5.74, 10.92 0.22 M2.13 16.43 C5.58 12.27, 9.51 10.1, 13.94 2.84 M2.13 16.43 C5.05 12.36, 8.95 8.37, 13.94 2.84 M2.53 22.07 C8.64 17.78, 12.54 11.06, 19.58 2.45 M2.53 22.07 C8.93 15.73, 13.24 9.55, 19.58 2.45 M2.26 28.47 C8.21 21.09, 14.68 14.33, 24.57 2.81 M2.26 28.47 C9.1 20.47, 14.96 13.19, 24.57 2.81 M2 34.87 C8.97 29.12, 14.74 18.83, 30.21 2.41 M2 34.87 C11.15 25.21, 19.8 15.53, 30.21 2.41 M2.4 40.51 C13.12 28.63, 20.35 19.93, 37.17 0.51 M2.4 40.51 C11.65 27.91, 23.7 17.19, 37.17 0.51 M2.14 46.91 C14.78 31.55, 32.14 12.96, 40.84 2.38 M2.14 46.91 C11.5 36.68, 19.12 27.31, 40.84 2.38 M2.53 52.55 C19 35.37, 33.34 16.42, 44.52 4.25 M2.53 52.55 C18.27 35.25, 33.98 17.03, 44.52 4.25 M2.27 58.95 C13.73 43.82, 27.31 28.49, 46.23 8.38 M2.27 58.95 C15.47 42.9, 28.17 28.38, 46.23 8.38 M2.66 64.59 C12.71 51.69, 23.74 37.83, 46.62 14.03 M2.66 64.59 C12.93 51.8, 22.61 40.62, 46.62 14.03 M2.4 70.99 C18.3 52, 34.21 33.25, 46.36 20.42 M2.4 70.99 C19.3 50.22, 36.42 30.15, 46.36 20.42 M4.77 74.37 C20.22 58.54, 35.23 37.65, 46.75 26.07 M4.77 74.37 C20.13 57.65, 35.1 41.35, 46.75 26.07 M9.1 75.48 C22.64 58.29, 36.55 46.07, 46.49 32.46 M9.1 75.48 C22.42 60.47, 35.55 45, 46.49 32.46 M14.74 75.09 C23.71 68.87, 29.12 57.77, 46.89 38.11 M14.74 75.09 C22.1 67.46, 28.87 59.55, 46.89 38.11 M19.73 75.45 C26.92 70.1, 32.24 61.56, 46.63 44.51 M19.73 75.45 C24.49 69.19, 30.78 63.68, 46.63 44.51 M25.37 75.05 C30.12 70.2, 34.99 61.2, 47.02 50.15 M25.37 75.05 C31.75 68.17, 38.3 59.25, 47.02 50.15 M30.36 75.41 C32.6 69.68, 37.57 66.8, 46.76 56.55 M30.36 75.41 C36.73 69.22, 42.15 61.88, 46.76 56.55 M36 75.02 C39.87 72.59, 40.75 69.18, 47.15 62.19 M36 75.02 C39.17 70.83, 42.7 67.26, 47.15 62.19" stroke="#ffc9c9" stroke-width="0.5" fill="none"></path><path d="M11.33 0 M11.33 0 C17.02 0.3, 23.56 -1.43, 34 0 M11.33 0 C17.44 0.75, 21.44 -0.78, 34 0 M34 0 C42.34 -1.01, 44.81 4.5, 45.33 11.33 M34 0 C42.05 -0.78, 45.78 1.88, 45.33 11.33 M45.33 11.33 C44.46 24.34, 44.76 41.73, 45.33 64 M45.33 11.33 C44.73 32.11, 45.63 52.84, 45.33 64 M45.33 64 C44.67 70.32, 39.97 76.86, 34 75.33 M45.33 64 C45.92 70.79, 43.64 73.78, 34 75.33 M34 75.33 C28.57 74.32, 23.58 75.19, 11.33 75.33 M34 75.33 C25.94 74.45, 17.41 76.39, 11.33 75.33 M11.33 75.33 C2.79 77.12, -0.66 71.08, 0 64 M11.33 75.33 C1.78 77.38, 1.35 71.77, 0 64 M0 64 C-1.44 48.43, 0.91 37.05, 0 11.33 M0 64 C-0.4 46.87, -0.14 27.58, 0 11.33 M0 11.33 C1.21 2.21, 2.71 1.19, 11.33 0 M0 11.33 C1.01 6.07, 3.12 -0.11, 11.33 0" stroke="#1e1e1e" stroke-width="1" fill="none"></path></g><g stroke-linecap="round" transform="translate(11.999969482421875 11.66668701171875) rotate(0 94.33334350585938 44)"><path d="M3.39 8.25 C3.39 8.25, 3.39 8.25, 3.39 8.25 M3.39 8.25 C3.39 8.25, 3.39 8.25, 3.39 8.25 M1.16 16.91 C4.12 13.63, 6.25 12.92, 11 5.59 M1.16 16.91 C5.05 13.78, 7.08 9.52, 11 5.59 M0.9 23.31 C7.41 17.27, 14.48 6.88, 17.96 3.69 M0.9 23.31 C6.59 17.57, 12.91 11.07, 17.96 3.69 M0.64 29.71 C4.38 24.89, 9.57 17.81, 24.26 2.54 M0.64 29.71 C7.18 21.91, 14.84 13.7, 24.26 2.54 M1.04 35.35 C8.42 30, 13.15 22.1, 29.9 2.14 M1.04 35.35 C9.16 27.48, 15.39 18.42, 29.9 2.14 M0.77 41.75 C10.05 34.18, 16.62 24.69, 34.89 2.5 M0.77 41.75 C14.64 26.65, 26.51 11.8, 34.89 2.5 M1.17 47.39 C13.62 33.92, 25.34 20.62, 40.53 2.11 M1.17 47.39 C9.48 38.92, 17.93 29.09, 40.53 2.11 M0.91 53.79 C15.74 33.67, 33.17 17.25, 45.52 2.47 M0.91 53.79 C17.4 34.65, 36.5 14.69, 45.52 2.47 M0.65 60.19 C17.9 39.46, 37.02 17.49, 51.16 2.07 M0.65 60.19 C17.6 38.42, 37.67 17.44, 51.16 2.07 M1.04 65.83 C17.98 46.61, 35.67 23.86, 56.15 2.43 M1.04 65.83 C21.77 43.79, 42.19 19.48, 56.15 2.43 M1.43 71.47 C22.29 46.87, 47.47 18.43, 61.79 2.04 M1.43 71.47 C14.01 57.46, 26.38 44.02, 61.79 2.04 M2.49 76.36 C23.79 49.26, 48.31 24.84, 66.78 2.4 M2.49 76.36 C22.62 52.76, 42.3 29.79, 66.78 2.4 M4.19 80.49 C18.14 62.09, 35.94 45.67, 72.42 2 M4.19 80.49 C24.91 55.25, 46.71 31.32, 72.42 2 M7.21 83.12 C33.28 54.03, 56.97 27.01, 77.41 2.36 M7.21 83.12 C29.24 56.73, 53.19 31.45, 77.41 2.36 M10.23 85.74 C30.16 67.77, 47.2 45.67, 83.05 1.97 M10.23 85.74 C25.1 67.9, 40.3 49.91, 83.05 1.97 M14.56 86.86 C43.82 53.93, 68.81 23.89, 88.04 2.33 M14.56 86.86 C43.26 54.63, 71.34 22.87, 88.04 2.33 M18.89 87.97 C42.44 61.52, 68.74 32.27, 93.68 1.94 M18.89 87.97 C39.97 66.22, 59.15 42.33, 93.68 1.94 M23.22 89.09 C42.24 66.05, 66.19 41.58, 98.67 2.3 M23.22 89.09 C40.19 71.07, 54.42 54.23, 98.67 2.3 M28.21 89.45 C46.44 71.58, 61.86 50.07, 104.31 1.9 M28.21 89.45 C42.5 71.86, 58.26 53.8, 104.31 1.9 M33.85 89.05 C57.15 61.26, 81.95 34.86, 109.3 2.26 M33.85 89.05 C48.33 72.23, 62.91 53.5, 109.3 2.26 M38.84 89.41 C70.93 57.04, 100.36 22.54, 114.94 1.87 M38.84 89.41 C56.52 69.96, 74.12 48.94, 114.94 1.87 M44.48 89.02 C68.92 59.33, 99.13 25.46, 119.93 2.23 M44.48 89.02 C66.38 63.96, 87.73 39.62, 119.93 2.23 M49.47 89.38 C73.83 58.85, 103.32 30.18, 124.92 2.59 M49.47 89.38 C69.07 66.3, 90.6 42.07, 124.92 2.59 M55.11 88.98 C70.31 70.11, 87.96 50.56, 130.56 2.19 M55.11 88.98 C76.21 63.6, 97.16 40.02, 130.56 2.19 M60.1 89.34 C89.94 59.2, 115.34 25.02, 135.55 2.55 M60.1 89.34 C84.22 60.01, 110.82 29.44, 135.55 2.55 M65.74 88.95 C91.38 60.81, 116.76 33.17, 141.19 2.16 M65.74 88.95 C88.01 63.18, 112.89 36.28, 141.19 2.16 M70.73 89.31 C99.71 58.94, 123.17 30.02, 146.18 2.52 M70.73 89.31 C99.94 56.12, 128.26 23.86, 146.18 2.52 M76.37 88.92 C101.53 62.04, 128.37 29.68, 151.82 2.12 M76.37 88.92 C92.3 71.47, 108.83 52.17, 151.82 2.12 M81.36 89.28 C107.67 60.75, 136.47 28.83, 156.81 2.48 M81.36 89.28 C100.33 69.9, 117.62 50.34, 156.81 2.48 M87 88.88 C106.79 67.16, 127.94 45.06, 162.45 2.09 M87 88.88 C113.56 58.59, 138.97 30.88, 162.45 2.09 M91.99 89.24 C109.92 66.91, 129.09 46.46, 168.09 1.69 M91.99 89.24 C109.3 69.78, 127.73 48.94, 168.09 1.69 M97.63 88.85 C119.6 61.39, 145.49 35.55, 172.42 2.81 M97.63 88.85 C121.94 60.38, 146.47 33.8, 172.42 2.81 M102.62 89.21 C124.04 62.97, 149.21 33.99, 177.41 3.17 M102.62 89.21 C120.48 68.16, 137.15 49.43, 177.41 3.17 M108.26 88.81 C130.13 60.37, 154.27 34.83, 181.74 4.28 M108.26 88.81 C131.75 59.77, 155.02 33.22, 181.74 4.28 M113.25 89.17 C126.35 73.83, 143.03 57.26, 184.76 6.91 M113.25 89.17 C141.07 54.75, 171.07 22.35, 184.76 6.91 M118.89 88.78 C137.96 68.02, 155.04 48.72, 187.12 10.29 M118.89 88.78 C132.89 72.12, 147.57 55.59, 187.12 10.29 M123.88 89.14 C146.29 63.27, 167.32 34.92, 188.83 14.42 M123.88 89.14 C147.52 60.89, 173.37 31.91, 188.83 14.42 M129.52 88.74 C150.35 64.71, 170.41 43.13, 190.54 18.55 M129.52 88.74 C149.96 66.25, 170.1 42.98, 190.54 18.55 M134.51 89.1 C147.98 77.32, 156.42 63.41, 190.28 24.95 M134.51 89.1 C154.71 65.17, 174.93 43.22, 190.28 24.95 M140.15 88.71 C158.33 66.83, 174.04 49.02, 190.67 30.6 M140.15 88.71 C159.98 65.69, 177.92 44.66, 190.67 30.6 M145.14 89.07 C156.51 76.72, 167.4 66.16, 190.41 36.99 M145.14 89.07 C155.29 78.37, 164.35 68.31, 190.41 36.99 M150.13 89.43 C162.57 75.01, 170.58 65.71, 190.8 42.64 M150.13 89.43 C162.05 74.39, 176.56 60.24, 190.8 42.64 M155.77 89.03 C162.09 81.94, 171.77 70.89, 190.54 49.03 M155.77 89.03 C167.53 76.3, 176.64 64.09, 190.54 49.03 M160.76 89.39 C169.03 79.22, 178.94 68.05, 190.94 54.68 M160.76 89.39 C169.02 81.08, 175.98 73.08, 190.94 54.68 M167.06 88.24 C174.17 81.63, 179.43 76.64, 190.67 61.08 M167.06 88.24 C175.97 78.43, 183.43 69.77, 190.67 61.08 M173.36 87.1 C180.05 78.82, 186.52 70.01, 190.41 67.47 M173.36 87.1 C179.12 80.24, 183.91 74.07, 190.41 67.47 M180.31 85.19 C182.22 83.91, 185.42 80.83, 188.18 76.13 M180.31 85.19 C183.23 82.73, 185.14 78.92, 188.18 76.13" stroke="#ffc9c9" stroke-width="0.5" fill="none"></path><path d="M22 0 M22 0 C70.06 2.74, 115.58 2.93, 166.67 0 M22 0 C65.02 1.18, 107.76 0.86, 166.67 0 M166.67 0 C182.07 -0.6, 187 5.79, 188.67 22 M166.67 0 C179.53 2.2, 189.47 7.79, 188.67 22 M188.67 22 C189.06 39.89, 186.98 52.95, 188.67 66 M188.67 22 C189.83 33.18, 188.14 45.91, 188.67 66 M188.67 66 C189.99 80.24, 180.63 86.27, 166.67 88 M188.67 66 C189.02 80.76, 180.41 88.12, 166.67 88 M166.67 88 C138.69 88.18, 109.91 87.34, 22 88 M166.67 88 C109.72 90.26, 51.3 90.09, 22 88 M22 88 C8.75 89.92, 1.5 82.44, 0 66 M22 88 C6.44 89.49, -1.35 82.7, 0 66 M0 66 C-1.34 54.66, 1.4 45.74, 0 22 M0 66 C0.06 51.42, 1.14 35.3, 0 22 M0 22 C0.34 7.38, 5.95 -1.14, 22 0 M0 22 C-0.07 6.11, 7.57 1.78, 22 0" stroke="#1e1e1e" stroke-width="1" fill="none"></path></g><g transform="translate(65.31768798828125 16.66668701171875) rotate(0 41.015625 12)"><text x="41.015625" y="0" font-family="Cascadia, Segoe UI Emoji" font-size="20px" fill="#1e1e1e" text-anchor="middle" style="white-space: pre;" direction="ltr" dominant-baseline="text-before-edge">Unit1.o</text></g><g stroke-linecap="round" transform="translate(19.999969482421875 48.3333740234375) rotate(0 40 21.666656494140625)"><path d="M10.83 0 M10.83 0 C26.18 -0.98, 44.64 -0.74, 69.17 0 M10.83 0 C23.4 0.05, 35.94 0.23, 69.17 0 M69.17 0 C74.69 1.96, 80.91 4.45, 80 10.83 M69.17 0 C75.95 0.02, 78.94 4.91, 80 10.83 M80 10.83 C79.36 19.26, 78.63 24.89, 80 32.5 M80 10.83 C80.91 17.14, 80.9 23.72, 80 32.5 M80 32.5 C78.68 41.67, 74.58 43.77, 69.17 43.33 M80 32.5 C81.56 38.5, 76.36 42.83, 69.17 43.33 M69.17 43.33 C49.84 44.07, 27.68 43.33, 10.83 43.33 M69.17 43.33 C54.07 42.77, 40.63 42.57, 10.83 43.33 M10.83 43.33 C5.03 42.11, 0.57 41.1, 0 32.5 M10.83 43.33 C4.72 45.12, -0.19 39.26, 0 32.5 M0 32.5 C-1.43 24.56, -0.41 18.32, 0 10.83 M0 32.5 C0.31 27.88, -0.9 24.54, 0 10.83 M0 10.83 C0.83 2.63, 4.32 -1.45, 10.83 0 M0 10.83 C-2.04 1.61, 1.64 -1.83, 10.83 0" stroke="#1e1e1e" stroke-width="1" fill="none"></path></g><g transform="translate(30.703094482421875 58.000030517578125) rotate(0 29.296875 12)"><text x="29.296875" y="0" font-family="Cascadia, Segoe UI Emoji" font-size="20px" fill="#1e1e1e" text-anchor="middle" style="white-space: pre;" direction="ltr" dominant-baseline="text-before-edge">.text</text></g><g stroke-linecap="round" transform="translate(107.33328247070312 47.66668701171875) rotate(0 41.333343505859375 21.666671752929688)"><path d="M10.83 0 M10.83 0 C32.66 -1.26, 56.97 -1.84, 71.83 0 M10.83 0 C23.33 0.27, 34.74 -0.6, 71.83 0 M71.83 0 C78.11 -1.36, 83 4.14, 82.67 10.83 M71.83 0 C79.87 -1.36, 80.56 3.41, 82.67 10.83 M82.67 10.83 C80.99 17.23, 82.64 19.05, 82.67 32.5 M82.67 10.83 C82.23 18.19, 82.68 27.28, 82.67 32.5 M82.67 32.5 C80.92 40.24, 80.91 44.95, 71.83 43.33 M82.67 32.5 C81.6 39.2, 78.28 42.78, 71.83 43.33 M71.83 43.33 C50.65 44.5, 29.86 44.16, 10.83 43.33 M71.83 43.33 C51.73 43.84, 30.67 44.5, 10.83 43.33 M10.83 43.33 C3.83 44.7, -1.72 40.09, 0 32.5 M10.83 43.33 C2.76 43.25, 2.09 37.92, 0 32.5 M0 32.5 C0.31 27.77, -0.38 24.13, 0 10.83 M0 32.5 C-0.04 28.24, -0.9 22.46, 0 10.83 M0 10.83 C-1.89 3.43, 5.61 -0.48, 10.83 0 M0 10.83 C0.23 3.11, 1.7 2.01, 10.83 0" stroke="#1e1e1e" stroke-width="1" fill="none"></path></g><g transform="translate(119.3697509765625 57.33335876464844) rotate(0 29.296875 12)"><text x="29.296875" y="0" font-family="Cascadia, Segoe UI Emoji" font-size="20px" fill="#1e1e1e" text-anchor="middle" style="white-space: pre;" direction="ltr" dominant-baseline="text-before-edge">.data</text></g><g stroke-linecap="round" transform="translate(86.33332824707031 183.33334350585938) rotate(0 23.666671752929688 40.333343505859375)"><path d="M1.92 4.32 C1.92 4.32, 1.92 4.32, 1.92 4.32 M1.92 4.32 C1.92 4.32, 1.92 4.32, 1.92 4.32 M1.66 10.72 C3.52 8.02, 4.96 6.13, 7.57 3.93 M1.66 10.72 C3.21 9.24, 4.95 7.03, 7.57 3.93 M2.06 16.36 C7.06 12.45, 10.58 8.15, 14.52 2.02 M2.06 16.36 C7.37 10.51, 12.61 5.91, 14.52 2.02 M1.8 22.76 C7.02 17.2, 11.18 13.01, 19.51 2.38 M1.8 22.76 C6.71 17.41, 11.27 11.86, 19.51 2.38 M2.19 28.4 C7.54 21.27, 15.08 13.39, 25.15 1.99 M2.19 28.4 C9.27 21.05, 14.66 12.98, 25.15 1.99 M1.93 34.8 C9.86 23.43, 20.13 13.46, 30.14 2.35 M1.93 34.8 C12.23 22.28, 23.68 10.22, 30.14 2.35 M2.32 40.45 C10.91 31.29, 20.98 17.63, 35.13 2.71 M2.32 40.45 C9.34 31.6, 18.57 22.99, 35.13 2.71 M2.06 46.84 C16.96 32.35, 29.3 17.42, 40.77 2.32 M2.06 46.84 C13.6 33.69, 26.35 19.8, 40.77 2.32 M2.46 52.49 C17.45 37.35, 33.5 19.58, 45.1 3.43 M2.46 52.49 C13.94 38.51, 27.33 24.79, 45.1 3.43 M2.2 58.88 C21.07 39.78, 39.72 17.62, 47.46 6.81 M2.2 58.88 C11.86 46.63, 22.49 36.72, 47.46 6.81 M2.59 64.53 C19.28 45.7, 33.95 30.23, 47.2 13.21 M2.59 64.53 C11 54.02, 20.98 43.44, 47.2 13.21 M2.33 70.92 C17.7 54.33, 34.77 36.66, 46.94 19.6 M2.33 70.92 C13.37 57.19, 26.11 43.87, 46.94 19.6 M3.38 75.81 C18.46 59.08, 29.9 43.52, 47.34 25.25 M3.38 75.81 C12.07 64.05, 22.48 53.53, 47.34 25.25 M5.09 79.95 C15.82 66.76, 24.04 57.22, 47.07 31.65 M5.09 79.95 C21.66 60.99, 38.02 41.3, 47.07 31.65 M9.42 81.06 C22.3 66.49, 36.6 48.84, 47.47 37.29 M9.42 81.06 C21.04 68.54, 31.9 54.53, 47.47 37.29 M15.06 80.67 C21.73 74.93, 28.14 67.14, 47.21 43.69 M15.06 80.67 C25.02 69.23, 36.26 55.93, 47.21 43.69 M20.05 81.03 C29.67 69.43, 37.77 60.91, 47.6 49.33 M20.05 81.03 C26.35 73.35, 33.21 65.49, 47.6 49.33 M25.69 80.63 C31 73, 37.41 66.63, 47.34 55.73 M25.69 80.63 C29.9 75.98, 34.24 70.8, 47.34 55.73 M31.33 80.24 C37.27 73.05, 43.8 67.19, 47.73 61.37 M31.33 80.24 C37.3 73.86, 45.3 65.94, 47.73 61.37 M36.32 80.6 C40.69 74.6, 43.19 72.41, 47.47 67.77 M36.32 80.6 C40.39 76.2, 44.52 71.13, 47.47 67.77 M41.31 80.96 C43.65 79.22, 44.17 77.05, 48.52 72.66 M41.31 80.96 C44.06 78.45, 46.85 74.91, 48.52 72.66" stroke="#b2f2bb" stroke-width="0.5" fill="none"></path><path d="M11.83 0 M11.83 0 C19.63 1.35, 25.16 0.29, 35.5 0 M11.83 0 C17.18 0.4, 24.07 -0.07, 35.5 0 M35.5 0 C41.67 -1.68, 47.36 4.17, 47.33 11.83 M35.5 0 C41.97 1.04, 47.31 2.97, 47.33 11.83 M47.33 11.83 C46.3 28.83, 48.76 49.14, 47.33 68.83 M47.33 11.83 C47.91 30.26, 48.11 46.65, 47.33 68.83 M47.33 68.83 C47.49 77.41, 44.91 79.92, 35.5 80.67 M47.33 68.83 C48.37 75.02, 42.47 80.88, 35.5 80.67 M35.5 80.67 C29.1 81.62, 25.74 81.9, 11.83 80.67 M35.5 80.67 C25.81 80.12, 17.86 79.88, 11.83 80.67 M11.83 80.67 C4.51 81.17, 1.19 75.66, 0 68.83 M11.83 80.67 C3.51 79.84, -2.27 77.21, 0 68.83 M0 68.83 C-0.45 51.74, 2.08 31.04, 0 11.83 M0 68.83 C1.23 54.16, -0.34 38.32, 0 11.83 M0 11.83 C-0.84 5.86, 5.86 -0.51, 11.83 0 M0 11.83 C0.43 4.26, 3.55 -1.66, 11.83 0" stroke="#1e1e1e" stroke-width="1" fill="none"></path></g><g stroke-linecap="round" transform="translate(469 185.33331298828125) rotate(0 22.666656494140625 37.66668701171875)"><path d="M4.62 1.37 C4.62 1.37, 4.62 1.37, 4.62 1.37 M4.62 1.37 C4.62 1.37, 4.62 1.37, 4.62 1.37 M2.39 10.03 C6.04 5.36, 8.38 2.85, 10.92 0.22 M2.39 10.03 C4.06 7.9, 6.33 5.25, 10.92 0.22 M2.13 16.43 C4.41 11.5, 7.7 8.97, 13.94 2.84 M2.13 16.43 C4.07 13.86, 8.28 9.96, 13.94 2.84 M2.53 22.07 C9.83 14.76, 15.18 7.81, 19.58 2.45 M2.53 22.07 C7.99 15.73, 11.23 10.73, 19.58 2.45 M2.26 28.47 C11.67 18.09, 17.84 8.89, 24.57 2.81 M2.26 28.47 C7.38 22.98, 10.87 18.19, 24.57 2.81 M2 34.87 C9.43 25.21, 18.77 16.67, 30.21 2.41 M2 34.87 C12.34 23.21, 22.24 13.04, 30.21 2.41 M2.4 40.51 C15.23 26.94, 27.52 11.25, 37.17 0.51 M2.4 40.51 C15 26.02, 28.09 10.42, 37.17 0.51 M2.14 46.91 C13.64 30.12, 28.54 16.89, 40.84 2.38 M2.14 46.91 C10.74 36.56, 21.15 25.87, 40.84 2.38 M2.53 52.55 C12.57 41.56, 23.39 30.51, 44.52 4.25 M2.53 52.55 C15.09 37.17, 29.07 22.56, 44.52 4.25 M2.27 58.95 C12.8 46.17, 23.16 33.17, 46.23 8.38 M2.27 58.95 C14.12 46.08, 26.73 32.96, 46.23 8.38 M2.66 64.59 C20.7 44.54, 35.57 28.46, 46.62 14.03 M2.66 64.59 C18.37 45.52, 34.73 28.55, 46.62 14.03 M2.4 70.99 C13.4 61.45, 20.91 47.85, 46.36 20.42 M2.4 70.99 C12.83 58.78, 22.12 48.09, 46.36 20.42 M4.77 74.37 C21.3 55.63, 37.21 34.78, 46.75 26.07 M4.77 74.37 C17.71 59.26, 29.16 45.05, 46.75 26.07 M9.1 75.48 C24.91 58.35, 38.76 41.93, 46.49 32.46 M9.1 75.48 C17.2 65.4, 26.11 57.34, 46.49 32.46 M14.74 75.09 C26.61 63.2, 35.03 50.51, 46.89 38.11 M14.74 75.09 C21.82 64.66, 30.24 56.94, 46.89 38.11 M19.73 75.45 C27.06 66.87, 32.74 58.67, 46.63 44.51 M19.73 75.45 C27.23 66.78, 34.84 57.85, 46.63 44.51 M25.37 75.05 C32.83 68.38, 38.84 56.65, 47.02 50.15 M25.37 75.05 C31.18 69.42, 36.02 62.49, 47.02 50.15 M30.36 75.41 C36.36 71.78, 39.45 67.53, 46.76 56.55 M30.36 75.41 C35.26 70.1, 40.19 64.09, 46.76 56.55 M36 75.02 C37.26 71.2, 40.41 70.06, 47.15 62.19 M36 75.02 C39.69 69.48, 43.82 66.31, 47.15 62.19" stroke="#b2f2bb" stroke-width="0.5" fill="none"></path><path d="M11.33 0 M11.33 0 C15.66 1.66, 24.41 -0.22, 34 0 M11.33 0 C18.6 -0.37, 27.94 0.54, 34 0 M34 0 C42.71 0.54, 47 4.25, 45.33 11.33 M34 0 C41.53 0.08, 44.15 3.81, 45.33 11.33 M45.33 11.33 C45.72 25.71, 46.37 42.01, 45.33 64 M45.33 11.33 C46.56 23.8, 45.86 35.86, 45.33 64 M45.33 64 C44.45 72.94, 41.6 73.43, 34 75.33 M45.33 64 C46.54 72.98, 42.33 74.67, 34 75.33 M34 75.33 C31.18 76.61, 25.69 74.51, 11.33 75.33 M34 75.33 C26.08 76.27, 19.57 74.78, 11.33 75.33 M11.33 75.33 C2.69 74.8, 0.57 70.73, 0 64 M11.33 75.33 C3.93 75.74, -2.23 73.1, 0 64 M0 64 C0.87 52.98, -0.01 43.06, 0 11.33 M0 64 C-0.65 50.08, -0.89 34.37, 0 11.33 M0 11.33 C-1.27 5.07, 4.05 1.95, 11.33 0 M0 11.33 C2.15 2.29, 3.91 1.57, 11.33 0" stroke="#1e1e1e" stroke-width="1" fill="none"></path></g><g stroke-linecap="round" transform="translate(213 10) rotate(0 94.33334350585938 44)"><path d="M3.39 8.25 C3.39 8.25, 3.39 8.25, 3.39 8.25 M3.39 8.25 C3.39 8.25, 3.39 8.25, 3.39 8.25 M1.16 16.91 C5.64 12.03, 7.21 9.86, 11 5.59 M1.16 16.91 C3.6 14.16, 5.04 11.96, 11 5.59 M0.9 23.31 C2.8 19.79, 6.86 16.59, 17.96 3.69 M0.9 23.31 C6.73 15.89, 14.84 9.16, 17.96 3.69 M0.64 29.71 C7.62 25.74, 10.39 18.22, 24.26 2.54 M0.64 29.71 C8.09 21.67, 15.76 13.34, 24.26 2.54 M1.04 35.35 C10 27.52, 13.87 20.63, 29.9 2.14 M1.04 35.35 C7.09 27.05, 15.59 19.07, 29.9 2.14 M0.77 41.75 C9.12 30.74, 16.24 23.92, 34.89 2.5 M0.77 41.75 C10.26 31.1, 21.16 18.4, 34.89 2.5 M1.17 47.39 C8.92 38.37, 18.05 28.68, 40.53 2.11 M1.17 47.39 C13.22 34.37, 26.22 20.31, 40.53 2.11 M0.91 53.79 C14.1 38.69, 27.86 24.43, 45.52 2.47 M0.91 53.79 C17.58 33.68, 35.96 15.35, 45.52 2.47 M0.65 60.19 C16.35 40.26, 32.52 23.68, 51.16 2.07 M0.65 60.19 C18.3 39.15, 35.36 18.73, 51.16 2.07 M1.04 65.83 C18 45.22, 39.28 21.91, 56.15 2.43 M1.04 65.83 C15.18 49.62, 27.1 34.42, 56.15 2.43 M1.43 71.47 C13.23 56.98, 26.6 41.24, 61.79 2.04 M1.43 71.47 C24.47 44.19, 46.39 17.6, 61.79 2.04 M2.49 76.36 C19.04 58.38, 35.44 40.01, 66.78 2.4 M2.49 76.36 C21.7 54.31, 41.87 32.75, 66.78 2.4 M4.19 80.49 C26.09 55.81, 45.87 34.74, 72.42 2 M4.19 80.49 C30.39 49.94, 56.77 20.38, 72.42 2 M7.21 83.12 C21.85 65.55, 33.75 48.99, 77.41 2.36 M7.21 83.12 C34.41 50.71, 61.63 19.83, 77.41 2.36 M10.23 85.74 C40.41 51.48, 65.36 20.2, 83.05 1.97 M10.23 85.74 C34.66 57.22, 59.07 29.82, 83.05 1.97 M14.56 86.86 C36.24 61.62, 59.2 36.38, 88.04 2.33 M14.56 86.86 C40.16 57.75, 64.2 29.06, 88.04 2.33 M18.89 87.97 C47.9 54.59, 73.41 25.9, 93.68 1.94 M18.89 87.97 C47.42 53.94, 76.99 19.84, 93.68 1.94 M23.22 89.09 C44.95 60.99, 67.63 34.65, 98.67 2.3 M23.22 89.09 C50.64 56.75, 78.73 25.41, 98.67 2.3 M28.21 89.45 C44.9 68.94, 63.48 47.59, 104.31 1.9 M28.21 89.45 C55.48 60.7, 81.6 30.76, 104.31 1.9 M33.85 89.05 C59.52 58.25, 84.87 28.11, 109.3 2.26 M33.85 89.05 C54.85 64.83, 75.88 39.96, 109.3 2.26 M38.84 89.41 C61.53 65.99, 81.98 42.04, 114.94 1.87 M38.84 89.41 C65.42 58.11, 89.93 28.49, 114.94 1.87 M44.48 89.02 C73.24 55.01, 104.66 18.78, 119.93 2.23 M44.48 89.02 C67.94 63.26, 90.79 37.05, 119.93 2.23 M49.47 89.38 C74.98 60.99, 97.26 36.49, 124.92 2.59 M49.47 89.38 C74.06 59.81, 100.26 31.15, 124.92 2.59 M55.11 88.98 C83.39 55.79, 113.05 20.43, 130.56 2.19 M55.11 88.98 C71.57 69.59, 89.84 51.28, 130.56 2.19 M60.1 89.34 C79.96 67.49, 99.44 43.02, 135.55 2.55 M60.1 89.34 C81.59 64.63, 102.02 40.41, 135.55 2.55 M65.74 88.95 C91.73 58.18, 116.62 30.63, 141.19 2.16 M65.74 88.95 C83.28 69.65, 100.92 49.4, 141.19 2.16 M70.73 89.31 C97.09 61.49, 119.11 34.19, 146.18 2.52 M70.73 89.31 C94.57 63.42, 116.92 35.89, 146.18 2.52 M76.37 88.92 C103.42 56.41, 129.35 26.42, 151.82 2.12 M76.37 88.92 C100.65 61.66, 126.44 34.44, 151.82 2.12 M81.36 89.28 C100.67 67.93, 119.43 46.17, 156.81 2.48 M81.36 89.28 C109.31 58.62, 135.09 26.42, 156.81 2.48 M87 88.88 C109.4 66.02, 128.84 39.6, 162.45 2.09 M87 88.88 C108.09 65.23, 130.1 40.7, 162.45 2.09 M91.99 89.24 C112.47 66.97, 129.42 46.24, 168.09 1.69 M91.99 89.24 C120.57 57.42, 148.86 23.91, 168.09 1.69 M97.63 88.85 C116 66.97, 135.04 48.01, 172.42 2.81 M97.63 88.85 C117.42 65.98, 138.51 42.56, 172.42 2.81 M102.62 89.21 C123.73 64.53, 144.56 41.87, 177.41 3.17 M102.62 89.21 C121.61 68.88, 139.5 47.92, 177.41 3.17 M108.26 88.81 C128.26 66.11, 147.59 40.43, 181.74 4.28 M108.26 88.81 C128.97 65.24, 149.39 41.76, 181.74 4.28 M113.25 89.17 C140.19 59.32, 167.12 31.78, 184.76 6.91 M113.25 89.17 C135.63 62.33, 158.74 37.16, 184.76 6.91 M118.89 88.78 C140.56 61.18, 167.17 34.1, 187.12 10.29 M118.89 88.78 C136.01 69.58, 152.26 50.69, 187.12 10.29 M123.88 89.14 C139.67 68.12, 158.46 48.95, 188.83 14.42 M123.88 89.14 C142.91 66.27, 161.69 46.1, 188.83 14.42 M129.52 88.74 C146.86 67.96, 166.01 44.93, 190.54 18.55 M129.52 88.74 C151.83 63.77, 172.83 39.57, 190.54 18.55 M134.51 89.1 C149.3 72.67, 162.12 56.85, 190.28 24.95 M134.51 89.1 C150.11 71.06, 165.84 54.55, 190.28 24.95 M140.15 88.71 C156.64 71.26, 167.95 54.77, 190.67 30.6 M140.15 88.71 C156.45 68.5, 174.1 50.14, 190.67 30.6 M145.14 89.07 C157.24 74.11, 168.71 59.63, 190.41 36.99 M145.14 89.07 C159.78 70.75, 177.26 51.83, 190.41 36.99 M150.13 89.43 C167.32 70.13, 180.67 52.94, 190.8 42.64 M150.13 89.43 C163.38 73.93, 177.9 58.13, 190.8 42.64 M155.77 89.03 C168.79 74.65, 182.71 57.12, 190.54 49.03 M155.77 89.03 C163.44 79.65, 170.6 70.64, 190.54 49.03 M160.76 89.39 C171.16 76.31, 185.36 64.91, 190.94 54.68 M160.76 89.39 C169.95 79.26, 180.24 68.03, 190.94 54.68 M167.06 88.24 C177.71 78.15, 186.36 67.02, 190.67 61.08 M167.06 88.24 C175.72 78.63, 185.25 67.89, 190.67 61.08 M173.36 87.1 C179.68 81.21, 185.75 74.15, 190.41 67.47 M173.36 87.1 C179.43 79.12, 185.16 72.73, 190.41 67.47 M180.31 85.19 C182.25 81.11, 186.22 77.51, 188.18 76.13 M180.31 85.19 C182.88 82.45, 185.21 80.29, 188.18 76.13" stroke="#b2f2bb" stroke-width="0.5" fill="none"></path><path d="M22 0 M22 0 C52.04 -0.62, 80.16 -1.31, 166.67 0 M22 0 C57.45 -0.06, 93.08 0.05, 166.67 0 M166.67 0 C181.09 1.09, 189.47 7.26, 188.67 22 M166.67 0 C181.49 1.54, 190.19 5.53, 188.67 22 M188.67 22 C189.15 35.98, 190.02 51.47, 188.67 66 M188.67 22 C188.49 40.05, 188.2 56.74, 188.67 66 M188.67 66 C190.45 81.52, 183 86.01, 166.67 88 M188.67 66 C189.29 80.78, 180.39 89.6, 166.67 88 M166.67 88 C122.71 88.04, 75.8 87.3, 22 88 M166.67 88 C119.68 87.21, 73.91 88.58, 22 88 M22 88 C9.02 87.2, 0.93 79.01, 0 66 M22 88 C9.55 88.96, 0.47 81.06, 0 66 M0 66 C1.65 54.04, -0.57 43.13, 0 22 M0 66 C-0.45 54.47, 0.04 43.59, 0 22 M0 22 C-0.26 6.09, 9.2 -0.09, 22 0 M0 22 C2.12 6.9, 7.46 1.43, 22 0" stroke="#1e1e1e" stroke-width="1" fill="none"></path></g><g transform="translate(266.3177185058594 15) rotate(0 41.015625 12)"><text x="41.015625" y="0" font-family="Cascadia, Segoe UI Emoji" font-size="20px" fill="#1e1e1e" text-anchor="middle" style="white-space: pre;" direction="ltr" dominant-baseline="text-before-edge">Unit2.o</text></g><g stroke-linecap="round" transform="translate(221 46.66668701171875) rotate(0 40 21.666656494140625)"><path d="M10.83 0 M10.83 0 C31.14 -1.76, 51.56 -0.51, 69.17 0 M10.83 0 C24.17 0.99, 37.03 0.73, 69.17 0 M69.17 0 C75.52 -1.4, 81.76 1.72, 80 10.83 M69.17 0 C77.04 0.58, 81.36 2.38, 80 10.83 M80 10.83 C80.35 17.35, 78.43 23.49, 80 32.5 M80 10.83 C79.55 16.11, 79.32 21.98, 80 32.5 M80 32.5 C81.54 41.37, 74.79 44.32, 69.17 43.33 M80 32.5 C79.03 41.93, 78.59 42.75, 69.17 43.33 M69.17 43.33 C49.13 43.23, 32.61 43.74, 10.83 43.33 M69.17 43.33 C48.42 43.78, 28.37 42.14, 10.83 43.33 M10.83 43.33 C5.27 42.25, 1.27 38.6, 0 32.5 M10.83 43.33 C1.68 42.67, 1.28 39.49, 0 32.5 M0 32.5 C0.22 25.96, -0.9 23.4, 0 10.83 M0 32.5 C-0.44 26.75, 0.59 19.15, 0 10.83 M0 10.83 C-1.93 2.69, 4.84 -0.47, 10.83 0 M0 10.83 C0.51 4.36, 3.57 0.08, 10.83 0" stroke="#1e1e1e" stroke-width="1" fill="none"></path></g><g transform="translate(231.703125 56.333343505859375) rotate(0 29.296875 12)"><text x="29.296875" y="0" font-family="Cascadia, Segoe UI Emoji" font-size="20px" fill="#1e1e1e" text-anchor="middle" style="white-space: pre;" direction="ltr" dominant-baseline="text-before-edge">.text</text></g><g stroke-linecap="round" transform="translate(308.33331298828125 46) rotate(0 41.333343505859375 21.666671752929688)"><path d="M10.83 0 M10.83 0 C21.41 1.27, 35.02 1.55, 71.83 0 M10.83 0 C34.27 -1.1, 59.44 -1.34, 71.83 0 M71.83 0 C79.62 0.51, 83.85 2.54, 82.67 10.83 M71.83 0 C78.62 -0.83, 80.4 4.1, 82.67 10.83 M82.67 10.83 C81.63 19.01, 84.16 23.59, 82.67 32.5 M82.67 10.83 C83.26 17.55, 81.69 23.12, 82.67 32.5 M82.67 32.5 C81.83 41.64, 80.97 42.83, 71.83 43.33 M82.67 32.5 C83.1 40.04, 78.66 41.67, 71.83 43.33 M71.83 43.33 C54.57 42.44, 34.03 42.96, 10.83 43.33 M71.83 43.33 C49.45 42.29, 26.04 42.26, 10.83 43.33 M10.83 43.33 C1.93 42.76, 1.11 39.52, 0 32.5 M10.83 43.33 C2.27 45.02, 1.49 40.16, 0 32.5 M0 32.5 C-0.13 26.94, -1.01 21.35, 0 10.83 M0 32.5 C-1.08 24.4, 0.5 16.99, 0 10.83 M0 10.83 C0.44 4.26, 3.58 0.07, 10.83 0 M0 10.83 C-2.07 4.1, 2.94 1.83, 10.83 0" stroke="#1e1e1e" stroke-width="1" fill="none"></path></g><g transform="translate(320.3697814941406 55.66667175292969) rotate(0 29.296875 12)"><text x="29.296875" y="0" font-family="Cascadia, Segoe UI Emoji" font-size="20px" fill="#1e1e1e" text-anchor="middle" style="white-space: pre;" direction="ltr" dominant-baseline="text-before-edge">.data</text></g><g stroke-linecap="round" transform="translate(22.666656494140625 175.66671752929688) rotate(0 188.33331298828125 47.333343505859375)"><path d="M23.67 0 M23.67 0 C140.44 2.7, 254.81 0.51, 353 0 M23.67 0 C122.81 -1.49, 220.48 -0.49, 353 0 M353 0 C367.63 1.46, 375.49 9.83, 376.67 23.67 M353 0 C367.63 2.19, 375.39 8.33, 376.67 23.67 M376.67 23.67 C375.33 41.3, 375.27 57.03, 376.67 71 M376.67 23.67 C376.16 42.71, 377.23 62.11, 376.67 71 M376.67 71 C378.43 85.74, 369.89 93.99, 353 94.67 M376.67 71 C377.08 85.82, 369.87 96.9, 353 94.67 M353 94.67 C247.68 96.22, 141.09 95.77, 23.67 94.67 M353 94.67 C230.27 94.2, 108.65 95.17, 23.67 94.67 M23.67 94.67 C7.91 93.77, 1.27 86.67, 0 71 M23.67 94.67 C8.36 94.64, -1.63 88.46, 0 71 M0 71 C-1.97 58.92, -0.89 50.49, 0 23.67 M0 71 C-0.03 62.19, 0.28 52.87, 0 23.67 M0 23.67 C1.58 8.34, 8.89 -0.17, 23.67 0 M0 23.67 C2.15 6.58, 6.53 0.66, 23.67 0" stroke="#1e1e1e" stroke-width="1" fill="none"></path></g><g transform="translate(181.70309448242188 211.00006103515625) rotate(0 29.296875 12)"><text x="29.296875" y="0" font-family="Cascadia, Segoe UI Emoji" font-size="20px" fill="#1e1e1e" text-anchor="middle" style="white-space: pre;" direction="ltr" dominant-baseline="text-before-edge">.text</text></g><g transform="translate(422.44666290283203 42.3333740234375) rotate(0 17.578125 12)"><text x="17.578125" y="0" font-family="Cascadia, Segoe UI Emoji" font-size="20px" fill="#1e1e1e" text-anchor="middle" style="white-space: pre;" direction="ltr" dominant-baseline="text-before-edge">...</text></g><g stroke-linecap="round"><g transform="translate(102.66665649414062 136.3333740234375) rotate(0 0.3718764290887293 -15.575999510460534)"><path d="M-0.58 0.41 C-0.64 -4.69, 0.64 -24.63, 0.44 -29.64 M1.32 -0.41 C1.12 -5.97, 0.21 -26.34, 0.08 -31.57" stroke="#ffc9c9" stroke-width="1" fill="none"></path></g><g transform="translate(102.66665649414062 136.3333740234375) rotate(0 0.3718764290887293 -15.575999510460534)"><path d="M6.23 -16.27 C3.97 -24.23, 1.87 -27.16, -1.32 -31.12 M6.44 -17.08 C3.92 -22.05, 1.71 -27.32, 0.71 -31.75" stroke="#ffc9c9" stroke-width="1" fill="none"></path></g><g transform="translate(102.66665649414062 136.3333740234375) rotate(0 0.3718764290887293 -15.575999510460534)"><path d="M-4.02 -15.9 C-2.49 -23.95, -0.78 -27.01, -1.32 -31.12 M-3.81 -16.71 C-2.66 -21.84, -1.19 -27.23, 0.71 -31.75" stroke="#ffc9c9" stroke-width="1" fill="none"></path></g></g><mask></mask><g stroke-linecap="round"><g transform="translate(304.0000305175781 133.66668701171875) rotate(0 -0.17464659089233692 -16.658747668438593)"><path d="M-1.02 0.37 C-0.83 -5.11, 0.21 -26.38, 0.08 -31.71 M0.65 -0.49 C0.83 -5.83, -0.44 -28.13, -0.48 -33.68" stroke="#b2f2bb" stroke-width="1" fill="none"></path></g><g transform="translate(304.0000305175781 133.66668701171875) rotate(0 -0.17464659089233692 -16.658747668438593)"><path d="M5.99 -17.85 C4.46 -23.63, 3.26 -25.59, -1.09 -33.44 M6.25 -19.05 C4.21 -21.59, 3.79 -25.91, -0.04 -33.02" stroke="#b2f2bb" stroke-width="1" fill="none"></path></g><g transform="translate(304.0000305175781 133.66668701171875) rotate(0 -0.17464659089233692 -16.658747668438593)"><path d="M-4.95 -17.47 C-4.14 -23.24, -2.99 -25.28, -1.09 -33.44 M-4.69 -18.68 C-4.41 -21.25, -2.52 -25.65, -0.04 -33.02" stroke="#b2f2bb" stroke-width="1" fill="none"></path></g></g><mask></mask></svg>